<svg width="34" height="34" viewBox="0 0 34 34" fill="none" xmlns="http://www.w3.org/2000/svg">
<g clip-path="url(#clip0_3_23)">
<path d="M0.761658 17.0535C0.761658 7.89087 8.18924 0.463287 17.3519 0.463287C26.5145 0.463287 33.9421 7.89087 33.9421 17.0535C33.9421 26.2161 26.5145 33.6437 17.3519 33.6437C8.18924 33.6437 0.761658 26.2161 0.761658 17.0535Z" fill="white"/>
<path d="M12.4654 13.0283C12.4654 14.1667 11.9182 15.0891 11.2432 15.0891C10.5681 15.0891 10.0203 14.1667 10.0203 13.0283C10.0203 11.8899 10.5681 10.9681 11.2432 10.9681C11.9182 10.9681 12.4654 11.8905 12.4654 13.0283Z" fill="#EF5DA8"/>
<path d="M24.6866 13.0283C24.6866 14.1667 24.1388 15.0891 23.4638 15.0891C22.7887 15.0891 22.2415 14.1667 22.2415 13.0283C22.2415 11.8899 22.7887 10.9681 23.4638 10.9681C24.1388 10.9681 24.6866 11.8905 24.6866 13.0283Z" fill="#EF5DA8"/>
<path d="M6.20398 18.622C6.83622 24.2211 11.5846 28.5725 17.352 28.5725C23.1193 28.5725 27.8678 24.2211 28.5 18.622H6.20398Z" fill="#EF5DA8"/>
</g>
<defs>
<clipPath id="clip0_3_23">
<rect width="33.1804" height="33.1804" fill="white" transform="translate(0.761658 0.463287)"/>
</clipPath>
</defs>
</svg>
