<svg width="17" height="18" viewBox="0 0 17 18" fill="none" xmlns="http://www.w3.org/2000/svg">
<path d="M4.95833 7.91104H6.375V9.32771H4.95833V7.91104ZM14.875 4.36937V14.286C14.875 15.0652 14.2375 15.7027 13.4583 15.7027H3.54167C3.16594 15.7027 2.80561 15.5535 2.53993 15.2878C2.27426 15.0221 2.125 14.6618 2.125 14.286L2.13208 4.36937C2.13208 3.59021 2.75542 2.95271 3.54167 2.95271H4.25V1.53604H5.66667V2.95271H11.3333V1.53604H12.75V2.95271H13.4583C14.2375 2.95271 14.875 3.59021 14.875 4.36937ZM3.54167 5.78604H13.4583V4.36937H3.54167V5.78604ZM13.4583 14.286V7.20271H3.54167V14.286H13.4583ZM10.625 9.32771H12.0417V7.91104H10.625V9.32771ZM7.79167 9.32771H9.20833V7.91104H7.79167V9.32771Z" fill="#FE8235"/>
</svg>
